<svg width="35" height="36" viewBox="0 0 35 36" fill="none" xmlns="http://www.w3.org/2000/svg">
<path d="M13.9 16.3V13.084C13.9 11.676 14.844 10.46 16.204 10.108H16.284C16.7559 9.98024 17.251 9.96289 17.7308 10.0573C18.2105 10.1517 18.6621 10.3554 19.0505 10.6524C19.4388 10.9495 19.7536 11.332 19.9703 11.7704C20.1869 12.2087 20.2998 12.691 20.3 13.18V17.9V14.7C20.3 13.292 21.26 12.06 22.636 11.708H22.716C23.1874 11.5823 23.6814 11.5672 24.1596 11.6639C24.6378 11.7605 25.0873 11.9663 25.4729 12.2652C25.8585 12.564 26.1698 12.9479 26.3827 13.3869C26.5955 13.8259 26.7041 14.3082 26.7 14.796V19.5V16.396C26.6996 15.6835 26.9371 14.9912 27.3748 14.429C27.8124 13.8667 28.4252 13.4666 29.116 13.292C29.5882 13.1727 30.0815 13.1627 30.5582 13.2629C31.0349 13.3631 31.4824 13.5708 31.8667 13.8702C32.2509 14.1696 32.5618 14.5527 32.7755 14.9904C32.9892 15.4282 33.1002 15.9089 33.1 16.396V21.1C33.1 22.06 32.972 23.132 32.764 24.252C32.2277 27.0954 30.7391 29.6714 28.5434 31.5559C26.3478 33.4404 23.5758 34.5211 20.684 34.62C18.2956 34.7174 15.9043 34.7174 13.516 34.62C10.6241 34.5211 7.85219 33.4404 5.6565 31.5559C3.46081 29.6714 1.97228 27.0954 1.43598 24.252C1.22798 23.132 1.09998 22.044 1.09998 21.1V18.716C1.09998 16.94 2.53998 15.5 4.31598 15.5C4.74162 15.4978 5.16342 15.5806 5.55668 15.7435C5.94995 15.9063 6.30677 16.146 6.60625 16.4485C6.90574 16.7509 7.14187 17.1101 7.30083 17.5049C7.45978 17.8998 7.53837 18.3224 7.53198 18.748L7.51598 20.3V4.30001C7.51598 2.54001 8.95598 1.10001 10.716 1.10001C11.5647 1.10001 12.3786 1.43715 12.9787 2.03726C13.5788 2.63738 13.916 3.45131 13.916 4.30001V16.3H13.9Z" fill="white" stroke="#6B8ECC" stroke-width="2.2" stroke-linejoin="round"/>
</svg>
