<svg preserveAspectRatio="none" width="100%" height="100%" overflow="visible" style="display: block;" viewBox="0 0 1400 824" fill="none" xmlns="http://www.w3.org/2000/svg">
<g id="background">
<rect id="Rectangle 7" width="1400" height="824" rx="60" fill="#6B8ECC"/>
<g id="Rectangle 9">
<path fill-rule="evenodd" clip-rule="evenodd" d="M1400 60C1400 26.8629 1373.14 0 1340 0H60C26.8629 0 0 26.8629 0 60L0 351.5C78.8333 304.167 302.7 223.7 567.5 280.5C898.5 351.5 1018 346.5 1138 313.5C1234 287.1 1352.67 293.833 1400 300.5V60Z" fill="#6B8ECC"/>
<path d="M0 764C0 797.137 26.863 824 60 824H1340C1373.14 824 1400 797.137 1400 764V300.5C1352.67 293.833 1234 287.1 1138 313.5C1018 346.5 898.5 351.5 567.5 280.5C302.7 223.7 78.8333 304.167 0 351.5L0 764Z" fill="#789AD5"/>
</g>
<g id="Rectangle 8">
<path d="M0 764C0 797.137 26.863 824 60 824H1340C1373.14 824 1400 797.137 1400 764V412C1284.42 443.056 1254.95 465.502 1195.92 510.449C1162.77 535.695 1120.29 568.041 1048 613C913.508 696.639 783.941 665.888 635.633 630.688C562.292 613.281 484.369 594.787 399 588.5C192.6 573.3 47 663.833 0 711V764Z" fill="#7094D5"/>
</g>
</g>
</svg>
